<?xml version="1.0" encoding="UTF-8" standalone="no"?><!DOCTYPE svg PUBLIC "-//W3C//DTD SVG 1.1//EN" "http://www.w3.org/Graphics/SVG/1.1/DTD/svg11.dtd"><svg width="100%" height="100%" viewBox="0 0 389 611" version="1.1" xmlns="http://www.w3.org/2000/svg" xmlns:xlink="http://www.w3.org/1999/xlink" xml:space="preserve" style="fill-rule:evenodd;clip-rule:evenodd;stroke-linecap:round;stroke-linejoin:round;stroke-miterlimit:1.5;"><rect id="Artboard1" x="0" y="0" width="388.208" height="610.964" style="fill:none;"/><clipPath id="_clip1"><rect x="0" y="0" width="388.208" height="610.964"/></clipPath><g clip-path="url(#_clip1)"><path d="M36.093,73.598c0.259,-2.329 2.027,-6.082 0.776,-6.988c-1.251,-0.906 -7.125,-1.007 -8.282,1.553c-3.667,8.11 -10.526,39.126 -13.718,47.106c-0.68,1.699 -4.702,1.769 -5.435,0.777c-0.734,-0.993 0.69,-4.487 1.035,-6.73" style="fill:none;stroke:#000;stroke-width:1.74px;"/><text x="30.104px" y="110.426px" style="font-family:'ArialMT', 'Arial', sans-serif;font-size:26.189px;">f&apos;(x).dx  = f(x) +C</text><path d="M37.426,268.654c0.259,-2.329 2.028,-6.082 0.777,-6.988c-1.251,-0.906 -7.126,-1.006 -8.283,1.553c-3.666,8.11 -10.525,39.126 -13.718,47.106c-0.679,1.7 -4.702,1.769 -5.435,0.777c-0.733,-0.992 0.69,-4.487 1.035,-6.73" style="fill:none;stroke:#000;stroke-width:1.74px;"/><text x="31.437px" y="305.482px" style="font-family:'ArialMT', 'Arial', sans-serif;font-size:26.189px;">f&apos;(x).dx  = f(x) +C</text><path d="M358.514,254.031c0.259,-2.33 2.027,-6.082 0.776,-6.988c-1.251,-0.906 -7.125,-1.007 -8.282,1.553c-3.667,8.109 -10.526,39.125 -13.718,47.106c-0.68,1.699 -4.702,1.769 -5.435,0.776c-0.734,-0.992 0.69,-4.486 1.035,-6.729" style="fill:none;stroke:#000;stroke-width:1.74px;"/><text x="138.516px" y="463.185px" style="font-family:'ArialMT', 'Arial', sans-serif;font-size:26.189px;">f&apos;(x).dx  = f(x) +C</text><path d="M26.866,171.503c0.259,-2.329 2.028,-6.082 0.777,-6.988c-1.251,-0.906 -7.126,-1.006 -8.283,1.553c-3.667,8.11 -10.525,39.126 -13.718,47.106c-0.679,1.7 -4.702,1.769 -5.435,0.777c-0.733,-0.992 0.69,-4.486 1.035,-6.73" style="fill:none;stroke:#000;stroke-width:1.74px;"/><text x="20.877px" y="208.331px" style="font-family:'ArialMT', 'Arial', sans-serif;font-size:26.189px;">f&apos;(x).dx  = f(x) +C</text></g></svg>