<?xml version="1.0" encoding="UTF-8" standalone="no"?><!DOCTYPE svg PUBLIC "-//W3C//DTD SVG 1.1//EN" "http://www.w3.org/Graphics/SVG/1.1/DTD/svg11.dtd"><svg width="100%" height="100%" viewBox="0 0 389 692" version="1.1" xmlns="http://www.w3.org/2000/svg" xmlns:xlink="http://www.w3.org/1999/xlink" xml:space="preserve" style="fill-rule:evenodd;clip-rule:evenodd;stroke-linecap:round;stroke-linejoin:round;stroke-miterlimit:1.5;"><path d="M43.135,34.568c0.259,-2.33 2.027,-6.083 0.776,-6.989c-1.251,-0.906 -7.125,-1.006 -8.282,1.553c-3.667,8.11 -10.526,39.126 -13.718,47.107c-0.679,1.699 -4.702,1.768 -5.435,0.776c-0.733,-0.992 0.69,-4.486 1.035,-6.729" style="fill:none;stroke:#000;stroke-width:1.74px;"/><text x="37.146px" y="71.395px" style="font-family:'ArialMT', 'Arial', sans-serif;font-size:26.189px;">f&apos;(x).dx  = f(x) +C</text><path d="M44.468,229.624c0.259,-2.33 2.028,-6.083 0.777,-6.989c-1.251,-0.905 -7.125,-1.006 -8.283,1.553c-3.666,8.11 -10.525,39.126 -13.717,47.107c-0.68,1.699 -4.702,1.768 -5.436,0.776c-0.733,-0.992 0.69,-4.486 1.036,-6.729" style="fill:none;stroke:#000;stroke-width:1.74px;"/><text x="38.479px" y="266.452px" style="font-family:'ArialMT', 'Arial', sans-serif;font-size:26.189px;">f&apos;(x).dx  = f(x) +C</text><path d="M365.556,215c0.259,-2.329 2.028,-6.082 0.777,-6.988c-1.251,-0.906 -7.126,-1.006 -8.283,1.553c-3.667,8.11 -10.525,39.126 -13.718,47.106c-0.679,1.7 -4.702,1.769 -5.435,0.777c-0.733,-0.992 0.69,-4.487 1.035,-6.73" style="fill:none;stroke:#000;stroke-width:1.74px;"/><text x="145.558px" y="424.155px" style="font-family:'ArialMT', 'Arial', sans-serif;font-size:26.189px;">f&apos;(x).dx  = f(x) +C</text><path d="M33.908,132.473c0.259,-2.33 2.028,-6.083 0.777,-6.988c-1.251,-0.906 -7.125,-1.007 -8.283,1.552c-3.666,8.11 -10.525,39.126 -13.717,47.107c-0.68,1.699 -4.702,1.768 -5.436,0.776c-0.733,-0.992 0.69,-4.486 1.036,-6.729" style="fill:none;stroke:#000;stroke-width:1.74px;"/><text x="27.919px" y="169.301px" style="font-family:'ArialMT', 'Arial', sans-serif;font-size:26.189px;">f&apos;(x).dx  = f(x) +C</text></svg>