<?xml version="1.0" encoding="UTF-8" standalone="no"?>
<!DOCTYPE svg PUBLIC "-//W3C//DTD SVG 1.1//EN" "http://www.w3.org/Graphics/SVG/1.1/DTD/svg11.dtd">
<svg width="100%" height="100%" viewBox="0 0 2160 3840" version="1.1" xmlns="http://www.w3.org/2000/svg" xmlns:xlink="http://www.w3.org/1999/xlink" xml:space="preserve" style="fill-rule:evenodd;clip-rule:evenodd;stroke-linecap:round;stroke-linejoin:round;stroke-miterlimit:1.5;">
    <g transform="matrix(0.322496,0,0,0.322496,-138.615,-76.2849)">
        <path d="M1172.89,832.03C1177.35,791.902 1207.82,727.25 1186.27,711.645C1164.72,696.039 1063.52,694.306 1043.59,738.397C980.424,878.104 862.268,1412.41 807.277,1549.88C795.568,1579.16 726.277,1580.35 713.644,1563.26C701.011,1546.17 725.534,1485.98 731.479,1447.33" style="fill:none;stroke:black;stroke-width:29.99px;"/>
    </g>
    <g transform="matrix(0.322496,0,0,0.322496,-272.442,-74.5799)">
        <text x="1484.69px" y="1461.17px" style="font-family:'ArialMT', 'Arial', sans-serif;font-size:451.152px;">f&apos;(x).dx  = f(x) +C</text>
    </g>
    <g transform="matrix(0.322496,0,0,0.322496,-131.207,1007.36)">
        <path d="M1172.89,832.03C1177.35,791.902 1207.82,727.25 1186.27,711.645C1164.72,696.039 1063.52,694.306 1043.59,738.397C980.424,878.104 862.268,1412.41 807.277,1549.88C795.568,1579.16 726.277,1580.35 713.644,1563.26C701.011,1546.17 725.534,1485.98 731.479,1447.33" style="fill:none;stroke:black;stroke-width:29.99px;"/>
    </g>
    <g transform="matrix(0.322496,0,0,0.322496,-265.034,1009.07)">
        <text x="1484.69px" y="1461.17px" style="font-family:'ArialMT', 'Arial', sans-serif;font-size:451.152px;">f&apos;(x).dx  = f(x) +C</text>
    </g>
    <g transform="matrix(0.322496,0,0,0.322496,1652.61,926.12)">
        <path d="M1172.89,832.03C1177.35,791.902 1207.82,727.25 1186.27,711.645C1164.72,696.039 1063.52,694.306 1043.59,738.397C980.424,878.104 862.268,1412.41 807.277,1549.88C795.568,1579.16 726.277,1580.35 713.644,1563.26C701.011,1546.17 725.534,1485.98 731.479,1447.33" style="fill:none;stroke:black;stroke-width:29.99px;"/>
    </g>
    <g transform="matrix(0.322496,0,0,0.322496,329.848,1885.19)">
        <text x="1484.69px" y="1461.17px" style="font-family:'ArialMT', 'Arial', sans-serif;font-size:451.152px;">f&apos;(x).dx  = f(x) +C</text>
    </g>
    <g transform="matrix(0.322496,0,0,0.322496,-189.874,467.633)">
        <path d="M1172.89,832.03C1177.35,791.902 1207.82,727.25 1186.27,711.645C1164.72,696.039 1063.52,694.306 1043.59,738.397C980.424,878.104 862.268,1412.41 807.277,1549.88C795.568,1579.16 726.277,1580.35 713.644,1563.26C701.011,1546.17 725.534,1485.98 731.479,1447.33" style="fill:none;stroke:black;stroke-width:29.99px;"/>
    </g>
    <g transform="matrix(0.322496,0,0,0.322496,-323.701,469.338)">
        <text x="1484.69px" y="1461.17px" style="font-family:'ArialMT', 'Arial', sans-serif;font-size:451.152px;">f&apos;(x).dx  = f(x) +C</text>
    </g>
</svg>
