<?xml version="1.0" encoding="UTF-8" standalone="no"?>
<!DOCTYPE svg PUBLIC "-//W3C//DTD SVG 1.1//EN" "http://www.w3.org/Graphics/SVG/1.1/DTD/svg11.dtd">
<svg width="100%" height="100%" viewBox="0 0 5120 2880" version="1.1" xmlns="http://www.w3.org/2000/svg" xmlns:xlink="http://www.w3.org/1999/xlink" xml:space="preserve" style="fill-rule:evenodd;clip-rule:evenodd;stroke-linejoin:round;stroke-miterlimit:1.41421;">
    <g transform="matrix(1.33333,0,0,1.33333,-1262.82,-4149.11)">
        <g id="Artboard3" transform="matrix(21.8831,0,0,11.7231,-19778.7,1274.38)">
            <rect x="947.118" y="156.738" width="175.478" height="184.252" style="fill:none;"/>
            <g transform="matrix(1.19338,0,0,2.22765,364.437,112.908)">
                <g transform="matrix(1,0,0,1,457.727,-1.42109e-14)">
                    <g transform="matrix(0.509793,0,0,0.527065,-220.311,-76.7805)">
                        <path d="M492.049,290.789L492.049,288.264C495.552,287.718 498.237,286.581 500.102,284.852C501.967,283.123 503.924,279.802 505.971,274.888L538.251,196.133L540.776,196.133L575.171,275.297C577.492,280.666 579.493,284.124 581.177,285.671C582.86,287.217 585.817,288.082 590.049,288.264L590.049,290.789L552.309,290.789L552.309,288.264C556.631,287.9 559.407,287.172 560.635,286.08C561.863,284.988 562.5,283.578 562.546,281.849C562.546,279.711 561.5,276.23 559.407,271.407L535.862,217.153L514.024,270.725C511.976,275.684 510.953,279.324 510.953,281.644C510.953,283.555 511.59,285.056 512.864,286.148C514.138,287.24 516.708,287.945 520.575,288.264L520.575,290.789L492.049,290.789Z" style="fill:white;fill-rule:nonzero;"/>
                    </g>
                    <g transform="matrix(0.153481,0,0,0.158681,-124.828,-67.5331)">
                        <path d="M1330.67,940.502C1337.3,940.641 1342.22,940.711 1345.42,940.711C1350.01,940.711 1355.21,940.641 1361.01,940.502L1361.28,943.355L1353.07,945.581C1356.18,955.925 1360.1,967.568 1364.83,980.509C1365.85,983.246 1366.8,986.052 1367.68,988.928C1368.57,986.098 1369.52,983.315 1370.54,980.578C1374.25,970.652 1377.05,962.906 1378.96,957.34C1380.86,951.774 1382.69,946.323 1384.45,940.989L1389.53,940.432C1391.29,946.045 1393.1,951.658 1394.96,957.27C1396.81,962.883 1399.48,970.629 1402.96,980.509C1404.07,983.477 1405,986.284 1405.74,988.928C1406.62,986.237 1407.62,983.454 1408.74,980.578C1413.88,967.544 1418.15,955.855 1421.54,945.512L1413.67,943.285L1413.4,940.432C1417.11,940.572 1421.05,940.641 1425.22,940.641C1429.35,940.641 1433.11,940.572 1436.5,940.432L1436.84,943.285L1431.28,944.816C1429.7,945.28 1428.54,946.393 1427.8,948.156C1423.44,958.685 1419.57,968.182 1416.18,976.647C1412.79,985.113 1409.13,994.61 1405.19,1005.14L1398.92,1005.76C1396.1,997.602 1393.74,990.957 1391.86,985.832C1389.98,980.706 1387.95,975.128 1385.77,969.098C1384.85,966.64 1384.06,964.274 1383.41,962.001C1382.67,964.228 1381.83,966.524 1380.9,968.889C1378.54,975.059 1376.35,980.741 1374.33,985.936C1372.31,991.131 1369.96,997.532 1367.27,1005.14L1361.14,1005.76C1357.2,994.819 1353.61,985.124 1350.36,976.682C1347.11,968.24 1343.45,958.708 1339.37,948.086C1338.72,946.37 1337.53,945.28 1335.82,944.816L1330.81,943.355L1330.67,940.502Z" style="fill:none;"/>
                        <path d="M1330.67,940.502C1337.3,940.641 1342.22,940.711 1345.42,940.711C1350.01,940.711 1355.21,940.641 1361.01,940.502L1361.28,943.355L1353.07,945.581C1356.18,955.925 1360.1,967.568 1364.83,980.509C1365.85,983.246 1366.8,986.052 1367.68,988.928C1368.57,986.098 1369.52,983.315 1370.54,980.578C1374.25,970.652 1377.05,962.906 1378.96,957.34C1380.86,951.774 1382.69,946.323 1384.45,940.989L1389.53,940.432C1391.29,946.045 1393.1,951.658 1394.96,957.27C1396.81,962.883 1399.48,970.629 1402.96,980.509C1404.07,983.477 1405,986.284 1405.74,988.928C1406.62,986.237 1407.62,983.454 1408.74,980.578C1413.88,967.544 1418.15,955.855 1421.54,945.512L1413.67,943.285L1413.4,940.432C1417.11,940.572 1421.05,940.641 1425.22,940.641C1429.35,940.641 1433.11,940.572 1436.5,940.432L1436.84,943.285L1431.28,944.816C1429.7,945.28 1428.54,946.393 1427.8,948.156C1423.44,958.685 1419.57,968.182 1416.18,976.647C1412.79,985.113 1409.13,994.61 1405.19,1005.14L1398.92,1005.76C1396.1,997.602 1393.74,990.957 1391.86,985.832C1389.98,980.706 1387.95,975.128 1385.77,969.098C1384.85,966.64 1384.06,964.274 1383.41,962.001C1382.67,964.228 1381.83,966.524 1380.9,968.889C1378.54,975.059 1376.35,980.741 1374.33,985.936C1372.31,991.131 1369.96,997.532 1367.27,1005.14L1361.14,1005.76C1357.2,994.819 1353.61,985.124 1350.36,976.682C1347.11,968.24 1343.45,958.708 1339.37,948.086C1338.72,946.37 1337.53,945.28 1335.82,944.816L1330.81,943.355L1330.67,940.502Z" style="fill:white;fill-rule:nonzero;"/>
                    </g>
                </g>
                <g transform="matrix(1,0,0,1.0341,503.624,-38.9114)">
                    <path d="M50.426,86.021C50.216,86.301 49.933,86.643 49.577,87.045C49.221,87.448 48.746,87.833 48.15,88.201C47.555,88.569 46.822,88.884 45.953,89.147C45.083,89.409 44.03,89.541 42.792,89.541C41.473,89.541 40.268,89.319 39.176,88.875C38.085,88.432 37.148,87.766 36.366,86.879C35.584,85.992 34.977,84.877 34.545,83.535C34.113,82.192 33.897,80.628 33.897,78.842L33.897,74.044C33.897,66.912 36.751,63.346 42.459,63.346C43.697,63.346 44.797,63.524 45.76,63.88C46.723,64.236 47.537,64.749 48.203,65.421C48.868,66.092 49.388,66.912 49.761,67.881C50.135,68.85 50.356,69.947 50.426,71.173L47.222,71.173C47.094,69.585 46.653,68.345 45.9,67.452C45.147,66.559 44.006,66.112 42.477,66.112C41.496,66.112 40.668,66.276 39.991,66.603C39.314,66.929 38.762,67.423 38.336,68.082C37.91,68.742 37.6,69.565 37.408,70.551C37.215,71.537 37.119,72.69 37.119,74.009L37.119,78.842C37.119,80.196 37.253,81.375 37.522,82.379C37.79,83.383 38.172,84.212 38.669,84.865C39.165,85.519 39.763,86.006 40.463,86.328C41.164,86.649 41.946,86.809 42.81,86.809C43.545,86.809 44.164,86.745 44.666,86.616C45.168,86.488 45.585,86.33 45.918,86.144C46.25,85.957 46.516,85.77 46.714,85.583C46.913,85.397 47.082,85.239 47.222,85.111L47.222,79.227L42.565,79.227L42.565,76.496L50.426,76.496L50.426,86.021Z" style="fill:white;fill-rule:nonzero;"/>
                    <path d="M67.551,82.537L58.936,82.537L56.958,89.19L53.666,89.19L61.878,63.696L64.627,63.696L72.857,89.19L69.565,89.19L67.551,82.537ZM59.777,79.77L66.728,79.77L63.244,68.178L59.777,79.77Z" style="fill:white;fill-rule:nonzero;"/>
                    <path d="M91.225,63.696L91.225,81.661C91.225,83.097 91.009,84.314 90.577,85.312C90.145,86.31 89.567,87.124 88.843,87.755C88.12,88.385 87.285,88.84 86.339,89.12C85.394,89.4 84.402,89.541 83.363,89.541C82.265,89.541 81.241,89.4 80.29,89.12C79.338,88.84 78.512,88.385 77.812,87.755C77.112,87.124 76.56,86.31 76.157,85.312C75.755,84.314 75.553,83.097 75.553,81.661L75.553,63.696L78.74,63.696L78.74,81.661C78.74,82.653 78.851,83.479 79.073,84.139C79.295,84.798 79.607,85.327 80.01,85.723C80.412,86.12 80.897,86.4 81.463,86.564C82.029,86.727 82.662,86.809 83.363,86.809C84.063,86.809 84.699,86.727 85.271,86.564C85.843,86.4 86.331,86.12 86.733,85.723C87.136,85.327 87.448,84.798 87.67,84.139C87.892,83.479 88.003,82.653 88.003,81.661L88.003,63.696L91.225,63.696Z" style="fill:white;fill-rule:nonzero;"/>
                    <path d="M107.299,82.747C107.299,82.151 107.232,81.626 107.097,81.171C106.963,80.716 106.715,80.298 106.353,79.919C105.991,79.539 105.501,79.183 104.882,78.851C104.264,78.518 103.464,78.177 102.484,77.826C101.433,77.465 100.482,77.053 99.629,76.592C98.777,76.131 98.051,75.6 97.449,74.999C96.848,74.397 96.384,73.712 96.057,72.941C95.731,72.171 95.567,71.289 95.567,70.297C95.567,69.305 95.739,68.386 96.084,67.539C96.428,66.693 96.918,65.958 97.555,65.333C98.191,64.709 98.961,64.221 99.866,63.871C100.771,63.521 101.777,63.346 102.886,63.346C104.124,63.346 105.218,63.562 106.169,63.994C107.121,64.425 107.92,64.997 108.568,65.71C109.216,66.422 109.704,67.245 110.03,68.178C110.357,69.112 110.521,70.075 110.521,71.068L107.299,71.068C107.299,70.356 107.214,69.696 107.045,69.089C106.876,68.482 106.61,67.957 106.248,67.513C105.886,67.069 105.428,66.725 104.874,66.48C104.319,66.235 103.657,66.112 102.886,66.112C102.174,66.112 101.561,66.217 101.048,66.427C100.534,66.638 100.111,66.926 99.778,67.294C99.446,67.662 99.2,68.097 99.043,68.599C98.885,69.101 98.806,69.649 98.806,70.245C98.806,71.319 99.192,72.217 99.962,72.941C100.733,73.665 101.923,74.313 103.534,74.885C104.772,75.293 105.834,75.746 106.721,76.242C107.608,76.738 108.335,77.301 108.901,77.931C109.467,78.562 109.882,79.268 110.144,80.05C110.407,80.832 110.538,81.719 110.538,82.712C110.538,83.751 110.363,84.69 110.013,85.531C109.663,86.371 109.164,87.089 108.516,87.685C107.868,88.28 107.083,88.738 106.161,89.059C105.238,89.38 104.2,89.541 103.044,89.541C102.04,89.541 101.051,89.377 100.076,89.05C99.101,88.723 98.232,88.236 97.467,87.588C96.702,86.94 96.084,86.132 95.611,85.163C95.138,84.194 94.902,83.074 94.902,81.801L98.124,81.801C98.124,82.677 98.252,83.427 98.509,84.051C98.766,84.676 99.119,85.192 99.568,85.601C100.018,86.009 100.54,86.31 101.135,86.503C101.731,86.695 102.367,86.792 103.044,86.792C104.456,86.792 105.519,86.43 106.231,85.706C106.943,84.982 107.299,83.996 107.299,82.747Z" style="fill:white;fill-rule:nonzero;"/>
                    <path d="M125.877,82.747C125.877,82.151 125.81,81.626 125.676,81.171C125.541,80.716 125.293,80.298 124.931,79.919C124.569,79.539 124.079,79.183 123.461,78.851C122.842,78.518 122.042,78.177 121.062,77.826C120.011,77.465 119.06,77.053 118.208,76.592C117.355,76.131 116.629,75.6 116.028,74.999C115.426,74.397 114.962,73.712 114.635,72.941C114.309,72.171 114.145,71.289 114.145,70.297C114.145,69.305 114.317,68.386 114.662,67.539C115.006,66.693 115.496,65.958 116.133,65.333C116.769,64.709 117.539,64.221 118.444,63.871C119.349,63.521 120.355,63.346 121.464,63.346C122.702,63.346 123.796,63.562 124.747,63.994C125.699,64.425 126.498,64.997 127.146,65.71C127.794,66.422 128.282,67.245 128.608,68.178C128.935,69.112 129.099,70.075 129.099,71.068L125.877,71.068C125.877,70.356 125.792,69.696 125.623,69.089C125.454,68.482 125.188,67.957 124.826,67.513C124.464,67.069 124.006,66.725 123.452,66.48C122.897,66.235 122.235,66.112 121.464,66.112C120.752,66.112 120.139,66.217 119.626,66.427C119.112,66.638 118.689,66.926 118.356,67.294C118.024,67.662 117.779,68.097 117.621,68.599C117.463,69.101 117.385,69.649 117.385,70.245C117.385,71.319 117.77,72.217 118.54,72.941C119.311,73.665 120.501,74.313 122.112,74.885C123.35,75.293 124.412,75.746 125.299,76.242C126.186,76.738 126.913,77.301 127.479,77.931C128.045,78.562 128.46,79.268 128.722,80.05C128.985,80.832 129.116,81.719 129.116,82.712C129.116,83.751 128.941,84.69 128.591,85.531C128.241,86.371 127.742,87.089 127.094,87.685C126.446,88.28 125.661,88.738 124.739,89.059C123.817,89.38 122.778,89.541 121.622,89.541C120.618,89.541 119.629,89.377 118.654,89.05C117.679,88.723 116.81,88.236 116.045,87.588C115.28,86.94 114.662,86.132 114.189,85.163C113.716,84.194 113.48,83.074 113.48,81.801L116.702,81.801C116.702,82.677 116.83,83.427 117.087,84.051C117.344,84.676 117.697,85.192 118.146,85.601C118.596,86.009 119.118,86.31 119.713,86.503C120.309,86.695 120.945,86.792 121.622,86.792C123.034,86.792 124.097,86.43 124.809,85.706C125.521,84.982 125.877,83.996 125.877,82.747Z" style="fill:white;fill-rule:nonzero;"/>
                </g>
            </g>
        </g>
    </g>
</svg>
